<mxfile host="app.diagrams.net" agent="Mozilla/5.0 (Windows NT 10.0; Win64; x64) AppleWebKit/537.36 (KHTML, like Gecko) Chrome/131.0.0.0 Safari/537.36" version="26.0.5">
  <diagram name="PÃ¡gina-1" id="8rB7lRmxeVJ_NQVGPMdq">
    <mxGraphModel dx="1434" dy="780" grid="1" gridSize="10" guides="1" tooltips="1" connect="1" arrows="1" fold="1" page="1" pageScale="1" pageWidth="3300" pageHeight="4681" math="0" shadow="0">
      <root>
        <mxCell id="0" />
        <mxCell id="1" parent="0" />
        <mxCell id="Q8lysUZiwYk1WU2H4I8g-20" value="1.X" style="edgeStyle=none;shape=connector;rounded=0;orthogonalLoop=1;jettySize=auto;html=1;exitX=0.5;exitY=0;exitDx=0;exitDy=0;entryX=0.5;entryY=1;entryDx=0;entryDy=0;strokeColor=default;align=center;verticalAlign=middle;fontFamily=Helvetica;fontSize=11;fontColor=default;labelBackgroundColor=default;endArrow=none;" edge="1" parent="1" source="Q8lysUZiwYk1WU2H4I8g-43" target="Q8lysUZiwYk1WU2H4I8g-3">
          <mxGeometry relative="1" as="geometry" />
        </mxCell>
        <mxCell id="Q8lysUZiwYk1WU2H4I8g-77" style="edgeStyle=none;shape=connector;rounded=0;orthogonalLoop=1;jettySize=auto;html=1;exitX=0.5;exitY=1;exitDx=0;exitDy=0;entryX=0.5;entryY=0;entryDx=0;entryDy=0;strokeColor=default;align=center;verticalAlign=middle;fontFamily=Helvetica;fontSize=11;fontColor=default;labelBackgroundColor=default;endArrow=none;" edge="1" parent="1" source="Q8lysUZiwYk1WU2H4I8g-1" target="Q8lysUZiwYk1WU2H4I8g-55">
          <mxGeometry relative="1" as="geometry" />
        </mxCell>
        <mxCell id="Q8lysUZiwYk1WU2H4I8g-1" value="GAME" style="whiteSpace=wrap;html=1;aspect=fixed;" vertex="1" parent="1">
          <mxGeometry x="600" y="530" width="80" height="80" as="geometry" />
        </mxCell>
        <mxCell id="Q8lysUZiwYk1WU2H4I8g-23" value="1.X" style="edgeStyle=none;shape=connector;rounded=0;orthogonalLoop=1;jettySize=auto;html=1;exitX=1;exitY=0.5;exitDx=0;exitDy=0;entryX=0;entryY=0.5;entryDx=0;entryDy=0;strokeColor=default;align=center;verticalAlign=middle;fontFamily=Helvetica;fontSize=11;fontColor=default;labelBackgroundColor=default;endArrow=none;" edge="1" parent="1" source="Q8lysUZiwYk1WU2H4I8g-31" target="Q8lysUZiwYk1WU2H4I8g-3">
          <mxGeometry relative="1" as="geometry" />
        </mxCell>
        <mxCell id="Q8lysUZiwYk1WU2H4I8g-41" style="edgeStyle=none;shape=connector;rounded=0;orthogonalLoop=1;jettySize=auto;html=1;exitX=0.5;exitY=1;exitDx=0;exitDy=0;entryX=0;entryY=0;entryDx=0;entryDy=0;strokeColor=default;align=center;verticalAlign=middle;fontFamily=Helvetica;fontSize=11;fontColor=default;labelBackgroundColor=default;endArrow=none;" edge="1" parent="1" source="Q8lysUZiwYk1WU2H4I8g-2" target="Q8lysUZiwYk1WU2H4I8g-40">
          <mxGeometry relative="1" as="geometry" />
        </mxCell>
        <mxCell id="Q8lysUZiwYk1WU2H4I8g-52" value="1.X" style="edgeLabel;html=1;align=center;verticalAlign=middle;resizable=0;points=[];fontFamily=Helvetica;fontSize=11;fontColor=default;labelBackgroundColor=default;" vertex="1" connectable="0" parent="Q8lysUZiwYk1WU2H4I8g-41">
          <mxGeometry x="-0.1586" y="1" relative="1" as="geometry">
            <mxPoint as="offset" />
          </mxGeometry>
        </mxCell>
        <mxCell id="Q8lysUZiwYk1WU2H4I8g-89" style="edgeStyle=none;shape=connector;rounded=0;orthogonalLoop=1;jettySize=auto;html=1;exitX=0;exitY=0.5;exitDx=0;exitDy=0;entryX=1;entryY=0.5;entryDx=0;entryDy=0;strokeColor=default;align=center;verticalAlign=middle;fontFamily=Helvetica;fontSize=11;fontColor=default;labelBackgroundColor=default;endArrow=none;" edge="1" parent="1" source="Q8lysUZiwYk1WU2H4I8g-2" target="Q8lysUZiwYk1WU2H4I8g-50">
          <mxGeometry relative="1" as="geometry" />
        </mxCell>
        <mxCell id="Q8lysUZiwYk1WU2H4I8g-2" value="AVATAR" style="whiteSpace=wrap;html=1;aspect=fixed;" vertex="1" parent="1">
          <mxGeometry x="380" y="320" width="80" height="80" as="geometry" />
        </mxCell>
        <mxCell id="Q8lysUZiwYk1WU2H4I8g-64" style="edgeStyle=none;shape=connector;rounded=0;orthogonalLoop=1;jettySize=auto;html=1;exitX=0.75;exitY=1;exitDx=0;exitDy=0;entryX=0;entryY=0;entryDx=0;entryDy=0;strokeColor=default;align=center;verticalAlign=middle;fontFamily=Helvetica;fontSize=11;fontColor=default;labelBackgroundColor=default;endArrow=none;" edge="1" parent="1" source="Q8lysUZiwYk1WU2H4I8g-3" target="Q8lysUZiwYk1WU2H4I8g-63">
          <mxGeometry relative="1" as="geometry" />
        </mxCell>
        <mxCell id="Q8lysUZiwYk1WU2H4I8g-65" style="edgeStyle=none;shape=connector;rounded=0;orthogonalLoop=1;jettySize=auto;html=1;exitX=1;exitY=0.75;exitDx=0;exitDy=0;entryX=0;entryY=0;entryDx=0;entryDy=0;strokeColor=default;align=center;verticalAlign=middle;fontFamily=Helvetica;fontSize=11;fontColor=default;labelBackgroundColor=default;endArrow=none;" edge="1" parent="1" source="Q8lysUZiwYk1WU2H4I8g-3" target="Q8lysUZiwYk1WU2H4I8g-59">
          <mxGeometry relative="1" as="geometry" />
        </mxCell>
        <mxCell id="Q8lysUZiwYk1WU2H4I8g-66" style="edgeStyle=none;shape=connector;rounded=0;orthogonalLoop=1;jettySize=auto;html=1;exitX=1;exitY=0;exitDx=0;exitDy=0;entryX=0;entryY=1;entryDx=0;entryDy=0;strokeColor=default;align=center;verticalAlign=middle;fontFamily=Helvetica;fontSize=11;fontColor=default;labelBackgroundColor=default;endArrow=none;" edge="1" parent="1" source="Q8lysUZiwYk1WU2H4I8g-3" target="Q8lysUZiwYk1WU2H4I8g-60">
          <mxGeometry relative="1" as="geometry" />
        </mxCell>
        <mxCell id="Q8lysUZiwYk1WU2H4I8g-67" style="edgeStyle=none;shape=connector;rounded=0;orthogonalLoop=1;jettySize=auto;html=1;exitX=0;exitY=0;exitDx=0;exitDy=0;entryX=1;entryY=1;entryDx=0;entryDy=0;strokeColor=default;align=center;verticalAlign=middle;fontFamily=Helvetica;fontSize=11;fontColor=default;labelBackgroundColor=default;endArrow=none;" edge="1" parent="1" source="Q8lysUZiwYk1WU2H4I8g-3" target="Q8lysUZiwYk1WU2H4I8g-61">
          <mxGeometry relative="1" as="geometry" />
        </mxCell>
        <mxCell id="Q8lysUZiwYk1WU2H4I8g-68" style="edgeStyle=none;shape=connector;rounded=0;orthogonalLoop=1;jettySize=auto;html=1;exitX=0;exitY=1;exitDx=0;exitDy=0;entryX=1;entryY=0;entryDx=0;entryDy=0;strokeColor=default;align=center;verticalAlign=middle;fontFamily=Helvetica;fontSize=11;fontColor=default;labelBackgroundColor=default;endArrow=none;" edge="1" parent="1" source="Q8lysUZiwYk1WU2H4I8g-3" target="Q8lysUZiwYk1WU2H4I8g-62">
          <mxGeometry relative="1" as="geometry" />
        </mxCell>
        <mxCell id="Q8lysUZiwYk1WU2H4I8g-3" value="MATCH" style="whiteSpace=wrap;html=1;aspect=fixed;" vertex="1" parent="1">
          <mxGeometry x="600" y="320" width="80" height="80" as="geometry" />
        </mxCell>
        <mxCell id="Q8lysUZiwYk1WU2H4I8g-19" style="edgeStyle=none;shape=connector;rounded=0;orthogonalLoop=1;jettySize=auto;html=1;exitX=0.5;exitY=1;exitDx=0;exitDy=0;entryX=0.5;entryY=0;entryDx=0;entryDy=0;strokeColor=default;align=center;verticalAlign=middle;fontFamily=Helvetica;fontSize=11;fontColor=default;labelBackgroundColor=default;endArrow=none;" edge="1" parent="1" source="Q8lysUZiwYk1WU2H4I8g-33" target="Q8lysUZiwYk1WU2H4I8g-3">
          <mxGeometry relative="1" as="geometry" />
        </mxCell>
        <mxCell id="Q8lysUZiwYk1WU2H4I8g-79" value="1.X" style="edgeLabel;html=1;align=center;verticalAlign=middle;resizable=0;points=[];fontFamily=Helvetica;fontSize=11;fontColor=default;labelBackgroundColor=default;" vertex="1" connectable="0" parent="Q8lysUZiwYk1WU2H4I8g-19">
          <mxGeometry x="-0.1333" y="4" relative="1" as="geometry">
            <mxPoint as="offset" />
          </mxGeometry>
        </mxCell>
        <mxCell id="Q8lysUZiwYk1WU2H4I8g-4" value="USER" style="whiteSpace=wrap;html=1;aspect=fixed;" vertex="1" parent="1">
          <mxGeometry x="600" y="110" width="80" height="80" as="geometry" />
        </mxCell>
        <mxCell id="Q8lysUZiwYk1WU2H4I8g-16" value="1.1" style="edgeStyle=none;shape=connector;rounded=0;orthogonalLoop=1;jettySize=auto;html=1;exitX=0;exitY=0.5;exitDx=0;exitDy=0;entryX=1;entryY=0.5;entryDx=0;entryDy=0;strokeColor=default;align=center;verticalAlign=middle;fontFamily=Helvetica;fontSize=11;fontColor=default;labelBackgroundColor=default;endArrow=none;" edge="1" parent="1" source="Q8lysUZiwYk1WU2H4I8g-48" target="Q8lysUZiwYk1WU2H4I8g-3">
          <mxGeometry relative="1" as="geometry" />
        </mxCell>
        <mxCell id="Q8lysUZiwYk1WU2H4I8g-80" style="edgeStyle=none;shape=connector;rounded=0;orthogonalLoop=1;jettySize=auto;html=1;exitX=0.5;exitY=1;exitDx=0;exitDy=0;entryX=1;entryY=0.5;entryDx=0;entryDy=0;strokeColor=default;align=center;verticalAlign=middle;fontFamily=Helvetica;fontSize=11;fontColor=default;labelBackgroundColor=default;endArrow=none;" edge="1" parent="1" source="Q8lysUZiwYk1WU2H4I8g-5" target="Q8lysUZiwYk1WU2H4I8g-45">
          <mxGeometry relative="1" as="geometry">
            <Array as="points">
              <mxPoint x="850" y="765" />
            </Array>
          </mxGeometry>
        </mxCell>
        <mxCell id="Q8lysUZiwYk1WU2H4I8g-5" value="CLASH" style="whiteSpace=wrap;html=1;aspect=fixed;" vertex="1" parent="1">
          <mxGeometry x="810" y="320" width="80" height="80" as="geometry" />
        </mxCell>
        <mxCell id="Q8lysUZiwYk1WU2H4I8g-99" style="edgeStyle=none;shape=connector;rounded=0;orthogonalLoop=1;jettySize=auto;html=1;exitX=1;exitY=0.5;exitDx=0;exitDy=0;entryX=0;entryY=0;entryDx=0;entryDy=0;strokeColor=default;align=center;verticalAlign=middle;fontFamily=Helvetica;fontSize=11;fontColor=default;labelBackgroundColor=default;endArrow=none;" edge="1" parent="1" source="Q8lysUZiwYk1WU2H4I8g-26" target="Q8lysUZiwYk1WU2H4I8g-4">
          <mxGeometry relative="1" as="geometry" />
        </mxCell>
        <mxCell id="Q8lysUZiwYk1WU2H4I8g-26" value="&lt;span style=&quot;font-size: 8px;&quot;&gt;NAME&lt;/span&gt;" style="ellipse;whiteSpace=wrap;html=1;aspect=fixed;fontFamily=Helvetica;fontSize=11;fontColor=default;labelBackgroundColor=default;" vertex="1" parent="1">
          <mxGeometry x="520" y="80" width="50" height="50" as="geometry" />
        </mxCell>
        <mxCell id="Q8lysUZiwYk1WU2H4I8g-95" style="edgeStyle=none;shape=connector;rounded=0;orthogonalLoop=1;jettySize=auto;html=1;exitX=1;exitY=1;exitDx=0;exitDy=0;entryX=0.25;entryY=0;entryDx=0;entryDy=0;strokeColor=default;align=center;verticalAlign=middle;fontFamily=Helvetica;fontSize=11;fontColor=default;labelBackgroundColor=default;endArrow=none;" edge="1" parent="1" source="Q8lysUZiwYk1WU2H4I8g-27" target="Q8lysUZiwYk1WU2H4I8g-4">
          <mxGeometry relative="1" as="geometry" />
        </mxCell>
        <mxCell id="Q8lysUZiwYk1WU2H4I8g-27" value="&lt;span style=&quot;font-size: 8px;&quot;&gt;MAIL&lt;/span&gt;" style="ellipse;whiteSpace=wrap;html=1;aspect=fixed;fontFamily=Helvetica;fontSize=11;fontColor=default;labelBackgroundColor=default;" vertex="1" parent="1">
          <mxGeometry x="550" y="30" width="50" height="50" as="geometry" />
        </mxCell>
        <mxCell id="Q8lysUZiwYk1WU2H4I8g-96" style="edgeStyle=none;shape=connector;rounded=0;orthogonalLoop=1;jettySize=auto;html=1;exitX=0.5;exitY=1;exitDx=0;exitDy=0;entryX=0.5;entryY=0;entryDx=0;entryDy=0;strokeColor=default;align=center;verticalAlign=middle;fontFamily=Helvetica;fontSize=11;fontColor=default;labelBackgroundColor=default;endArrow=none;" edge="1" parent="1" source="Q8lysUZiwYk1WU2H4I8g-28" target="Q8lysUZiwYk1WU2H4I8g-4">
          <mxGeometry relative="1" as="geometry" />
        </mxCell>
        <mxCell id="Q8lysUZiwYk1WU2H4I8g-28" value="&lt;span style=&quot;font-size: 8px;&quot;&gt;NICK&lt;/span&gt;" style="ellipse;whiteSpace=wrap;html=1;aspect=fixed;fontFamily=Helvetica;fontSize=11;fontColor=default;labelBackgroundColor=default;" vertex="1" parent="1">
          <mxGeometry x="615" y="10" width="50" height="50" as="geometry" />
        </mxCell>
        <mxCell id="Q8lysUZiwYk1WU2H4I8g-97" style="edgeStyle=none;shape=connector;rounded=0;orthogonalLoop=1;jettySize=auto;html=1;exitX=0;exitY=1;exitDx=0;exitDy=0;entryX=0.75;entryY=0;entryDx=0;entryDy=0;strokeColor=default;align=center;verticalAlign=middle;fontFamily=Helvetica;fontSize=11;fontColor=default;labelBackgroundColor=default;endArrow=none;" edge="1" parent="1" source="Q8lysUZiwYk1WU2H4I8g-29" target="Q8lysUZiwYk1WU2H4I8g-4">
          <mxGeometry relative="1" as="geometry" />
        </mxCell>
        <mxCell id="Q8lysUZiwYk1WU2H4I8g-29" value="&lt;span style=&quot;font-size: 8px;&quot;&gt;LOGIN&lt;/span&gt;" style="ellipse;whiteSpace=wrap;html=1;aspect=fixed;fontFamily=Helvetica;fontSize=11;fontColor=default;labelBackgroundColor=default;" vertex="1" parent="1">
          <mxGeometry x="680" y="30" width="50" height="50" as="geometry" />
        </mxCell>
        <mxCell id="Q8lysUZiwYk1WU2H4I8g-100" style="edgeStyle=none;shape=connector;rounded=0;orthogonalLoop=1;jettySize=auto;html=1;exitX=0;exitY=0.5;exitDx=0;exitDy=0;entryX=1;entryY=0;entryDx=0;entryDy=0;strokeColor=default;align=center;verticalAlign=middle;fontFamily=Helvetica;fontSize=11;fontColor=default;labelBackgroundColor=default;endArrow=none;" edge="1" parent="1" source="Q8lysUZiwYk1WU2H4I8g-30" target="Q8lysUZiwYk1WU2H4I8g-4">
          <mxGeometry relative="1" as="geometry" />
        </mxCell>
        <mxCell id="Q8lysUZiwYk1WU2H4I8g-30" value="&lt;span style=&quot;font-size: 8px;&quot;&gt;PASSWORD&lt;/span&gt;" style="ellipse;whiteSpace=wrap;html=1;aspect=fixed;fontFamily=Helvetica;fontSize=11;fontColor=default;labelBackgroundColor=default;" vertex="1" parent="1">
          <mxGeometry x="710" y="80" width="50" height="50" as="geometry" />
        </mxCell>
        <mxCell id="Q8lysUZiwYk1WU2H4I8g-32" value="1.X" style="edgeStyle=none;shape=connector;rounded=0;orthogonalLoop=1;jettySize=auto;html=1;exitX=1;exitY=0.5;exitDx=0;exitDy=0;entryX=0;entryY=0.5;entryDx=0;entryDy=0;strokeColor=default;align=center;verticalAlign=middle;fontFamily=Helvetica;fontSize=11;fontColor=default;labelBackgroundColor=default;endArrow=none;" edge="1" parent="1" source="Q8lysUZiwYk1WU2H4I8g-2" target="Q8lysUZiwYk1WU2H4I8g-31">
          <mxGeometry relative="1" as="geometry">
            <mxPoint x="460" y="360" as="sourcePoint" />
            <mxPoint x="600" y="360" as="targetPoint" />
          </mxGeometry>
        </mxCell>
        <mxCell id="Q8lysUZiwYk1WU2H4I8g-31" value="ACCESS" style="rhombus;whiteSpace=wrap;html=1;fontFamily=Helvetica;fontSize=11;fontColor=default;labelBackgroundColor=default;" vertex="1" parent="1">
          <mxGeometry x="510" y="335" width="50" height="50" as="geometry" />
        </mxCell>
        <mxCell id="Q8lysUZiwYk1WU2H4I8g-34" value="1.X" style="edgeStyle=none;shape=connector;rounded=0;orthogonalLoop=1;jettySize=auto;html=1;exitX=0.5;exitY=1;exitDx=0;exitDy=0;entryX=0.5;entryY=0;entryDx=0;entryDy=0;strokeColor=default;align=center;verticalAlign=middle;fontFamily=Helvetica;fontSize=11;fontColor=default;labelBackgroundColor=default;endArrow=none;" edge="1" parent="1" source="Q8lysUZiwYk1WU2H4I8g-4" target="Q8lysUZiwYk1WU2H4I8g-33">
          <mxGeometry relative="1" as="geometry">
            <mxPoint x="640" y="200" as="sourcePoint" />
            <mxPoint x="640" y="320" as="targetPoint" />
          </mxGeometry>
        </mxCell>
        <mxCell id="Q8lysUZiwYk1WU2H4I8g-33" value="CREATES" style="rhombus;whiteSpace=wrap;html=1;fontFamily=Helvetica;fontSize=11;fontColor=default;labelBackgroundColor=default;" vertex="1" parent="1">
          <mxGeometry x="615" y="240" width="50" height="50" as="geometry" />
        </mxCell>
        <mxCell id="Q8lysUZiwYk1WU2H4I8g-38" value="1.1" style="edgeStyle=none;shape=connector;rounded=0;orthogonalLoop=1;jettySize=auto;html=1;exitX=1;exitY=0;exitDx=0;exitDy=0;entryX=0;entryY=0.5;entryDx=0;entryDy=0;strokeColor=default;align=center;verticalAlign=middle;fontFamily=Helvetica;fontSize=11;fontColor=default;labelBackgroundColor=default;endArrow=none;" edge="1" parent="1" source="Q8lysUZiwYk1WU2H4I8g-35" target="Q8lysUZiwYk1WU2H4I8g-4">
          <mxGeometry relative="1" as="geometry" />
        </mxCell>
        <mxCell id="Q8lysUZiwYk1WU2H4I8g-39" value="1.X" style="edgeStyle=none;shape=connector;rounded=0;orthogonalLoop=1;jettySize=auto;html=1;exitX=0;exitY=1;exitDx=0;exitDy=0;entryX=0.5;entryY=0;entryDx=0;entryDy=0;strokeColor=default;align=center;verticalAlign=middle;fontFamily=Helvetica;fontSize=11;fontColor=default;labelBackgroundColor=default;endArrow=none;" edge="1" parent="1" source="Q8lysUZiwYk1WU2H4I8g-35" target="Q8lysUZiwYk1WU2H4I8g-2">
          <mxGeometry relative="1" as="geometry" />
        </mxCell>
        <mxCell id="Q8lysUZiwYk1WU2H4I8g-35" value="HAS" style="rhombus;whiteSpace=wrap;html=1;fontFamily=Helvetica;fontSize=11;fontColor=default;labelBackgroundColor=default;" vertex="1" parent="1">
          <mxGeometry x="480" y="220" width="50" height="50" as="geometry" />
        </mxCell>
        <mxCell id="Q8lysUZiwYk1WU2H4I8g-42" style="edgeStyle=none;shape=connector;rounded=0;orthogonalLoop=1;jettySize=auto;html=1;exitX=1;exitY=1;exitDx=0;exitDy=0;entryX=0;entryY=0.5;entryDx=0;entryDy=0;strokeColor=default;align=center;verticalAlign=middle;fontFamily=Helvetica;fontSize=11;fontColor=default;labelBackgroundColor=default;endArrow=none;" edge="1" parent="1" source="Q8lysUZiwYk1WU2H4I8g-40" target="Q8lysUZiwYk1WU2H4I8g-1">
          <mxGeometry relative="1" as="geometry" />
        </mxCell>
        <mxCell id="Q8lysUZiwYk1WU2H4I8g-53" value="1.1" style="edgeLabel;html=1;align=center;verticalAlign=middle;resizable=0;points=[];fontFamily=Helvetica;fontSize=11;fontColor=default;labelBackgroundColor=default;" vertex="1" connectable="0" parent="Q8lysUZiwYk1WU2H4I8g-42">
          <mxGeometry x="-0.1374" y="-2" relative="1" as="geometry">
            <mxPoint x="1" as="offset" />
          </mxGeometry>
        </mxCell>
        <mxCell id="Q8lysUZiwYk1WU2H4I8g-40" value="USES" style="rhombus;whiteSpace=wrap;html=1;fontFamily=Helvetica;fontSize=11;fontColor=default;labelBackgroundColor=default;" vertex="1" parent="1">
          <mxGeometry x="480" y="460" width="50" height="50" as="geometry" />
        </mxCell>
        <mxCell id="Q8lysUZiwYk1WU2H4I8g-44" value="1.1" style="edgeStyle=none;shape=connector;rounded=0;orthogonalLoop=1;jettySize=auto;html=1;exitX=0.5;exitY=0;exitDx=0;exitDy=0;entryX=0.5;entryY=1;entryDx=0;entryDy=0;strokeColor=default;align=center;verticalAlign=middle;fontFamily=Helvetica;fontSize=11;fontColor=default;labelBackgroundColor=default;endArrow=none;" edge="1" parent="1" source="Q8lysUZiwYk1WU2H4I8g-1" target="Q8lysUZiwYk1WU2H4I8g-43">
          <mxGeometry relative="1" as="geometry">
            <mxPoint x="640" y="530" as="sourcePoint" />
            <mxPoint x="640" y="400" as="targetPoint" />
          </mxGeometry>
        </mxCell>
        <mxCell id="Q8lysUZiwYk1WU2H4I8g-43" value="HAS" style="rhombus;whiteSpace=wrap;html=1;fontFamily=Helvetica;fontSize=11;fontColor=default;labelBackgroundColor=default;" vertex="1" parent="1">
          <mxGeometry x="615" y="440" width="50" height="50" as="geometry" />
        </mxCell>
        <mxCell id="Q8lysUZiwYk1WU2H4I8g-45" value="FIGHTS" style="rhombus;whiteSpace=wrap;html=1;fontFamily=Helvetica;fontSize=11;fontColor=default;labelBackgroundColor=default;" vertex="1" parent="1">
          <mxGeometry x="615" y="740" width="50" height="50" as="geometry" />
        </mxCell>
        <mxCell id="Q8lysUZiwYk1WU2H4I8g-49" value="1.X" style="edgeStyle=none;shape=connector;rounded=0;orthogonalLoop=1;jettySize=auto;html=1;exitX=0;exitY=0.5;exitDx=0;exitDy=0;entryX=1;entryY=0.5;entryDx=0;entryDy=0;strokeColor=default;align=center;verticalAlign=middle;fontFamily=Helvetica;fontSize=11;fontColor=default;labelBackgroundColor=default;endArrow=none;" edge="1" parent="1" source="Q8lysUZiwYk1WU2H4I8g-5" target="Q8lysUZiwYk1WU2H4I8g-48">
          <mxGeometry relative="1" as="geometry">
            <mxPoint x="810" y="360" as="sourcePoint" />
            <mxPoint x="680" y="360" as="targetPoint" />
            <Array as="points">
              <mxPoint x="790" y="360" />
            </Array>
          </mxGeometry>
        </mxCell>
        <mxCell id="Q8lysUZiwYk1WU2H4I8g-48" value="HAS" style="rhombus;whiteSpace=wrap;html=1;fontFamily=Helvetica;fontSize=11;fontColor=default;labelBackgroundColor=default;" vertex="1" parent="1">
          <mxGeometry x="720" y="335" width="50" height="50" as="geometry" />
        </mxCell>
        <mxCell id="Q8lysUZiwYk1WU2H4I8g-50" value="&lt;span style=&quot;font-size: 8px;&quot;&gt;SKIN&lt;/span&gt;" style="ellipse;whiteSpace=wrap;html=1;aspect=fixed;fontFamily=Helvetica;fontSize=11;fontColor=default;labelBackgroundColor=default;" vertex="1" parent="1">
          <mxGeometry x="290" y="335" width="50" height="50" as="geometry" />
        </mxCell>
        <mxCell id="Q8lysUZiwYk1WU2H4I8g-90" style="edgeStyle=none;shape=connector;rounded=0;orthogonalLoop=1;jettySize=auto;html=1;exitX=1;exitY=1;exitDx=0;exitDy=0;entryX=0;entryY=0;entryDx=0;entryDy=0;strokeColor=default;align=center;verticalAlign=middle;fontFamily=Helvetica;fontSize=11;fontColor=default;labelBackgroundColor=default;endArrow=none;" edge="1" parent="1" source="Q8lysUZiwYk1WU2H4I8g-51" target="Q8lysUZiwYk1WU2H4I8g-2">
          <mxGeometry relative="1" as="geometry" />
        </mxCell>
        <mxCell id="Q8lysUZiwYk1WU2H4I8g-51" value="&lt;span style=&quot;font-size: 8px;&quot;&gt;LVL&lt;/span&gt;" style="ellipse;whiteSpace=wrap;html=1;aspect=fixed;fontFamily=Helvetica;fontSize=11;fontColor=default;labelBackgroundColor=default;" vertex="1" parent="1">
          <mxGeometry x="320" y="260" width="50" height="50" as="geometry" />
        </mxCell>
        <mxCell id="Q8lysUZiwYk1WU2H4I8g-76" style="edgeStyle=none;shape=connector;rounded=0;orthogonalLoop=1;jettySize=auto;html=1;exitX=0;exitY=0;exitDx=0;exitDy=0;entryX=1;entryY=1;entryDx=0;entryDy=0;strokeColor=default;align=center;verticalAlign=middle;fontFamily=Helvetica;fontSize=11;fontColor=default;labelBackgroundColor=default;endArrow=none;" edge="1" parent="1" source="Q8lysUZiwYk1WU2H4I8g-54" target="Q8lysUZiwYk1WU2H4I8g-1">
          <mxGeometry relative="1" as="geometry" />
        </mxCell>
        <mxCell id="Q8lysUZiwYk1WU2H4I8g-54" value="&lt;span style=&quot;font-size: 8px;&quot;&gt;CODE&lt;/span&gt;" style="ellipse;whiteSpace=wrap;html=1;aspect=fixed;fontFamily=Helvetica;fontSize=11;fontColor=default;labelBackgroundColor=default;" vertex="1" parent="1">
          <mxGeometry x="690" y="620" width="50" height="50" as="geometry" />
        </mxCell>
        <mxCell id="Q8lysUZiwYk1WU2H4I8g-55" value="&lt;span style=&quot;font-size: 8px;&quot;&gt;DESCRIPTION&lt;/span&gt;" style="ellipse;whiteSpace=wrap;html=1;aspect=fixed;fontFamily=Helvetica;fontSize=11;fontColor=default;labelBackgroundColor=default;" vertex="1" parent="1">
          <mxGeometry x="615" y="640" width="50" height="50" as="geometry" />
        </mxCell>
        <mxCell id="Q8lysUZiwYk1WU2H4I8g-75" style="edgeStyle=none;shape=connector;rounded=0;orthogonalLoop=1;jettySize=auto;html=1;exitX=0;exitY=0.5;exitDx=0;exitDy=0;entryX=1;entryY=0.5;entryDx=0;entryDy=0;strokeColor=default;align=center;verticalAlign=middle;fontFamily=Helvetica;fontSize=11;fontColor=default;labelBackgroundColor=default;endArrow=none;" edge="1" parent="1" source="Q8lysUZiwYk1WU2H4I8g-56" target="Q8lysUZiwYk1WU2H4I8g-1">
          <mxGeometry relative="1" as="geometry" />
        </mxCell>
        <mxCell id="Q8lysUZiwYk1WU2H4I8g-56" value="&lt;span style=&quot;font-size: 8px;&quot;&gt;NAME&lt;/span&gt;" style="ellipse;whiteSpace=wrap;html=1;aspect=fixed;fontFamily=Helvetica;fontSize=11;fontColor=default;labelBackgroundColor=default;" vertex="1" parent="1">
          <mxGeometry x="710" y="545" width="50" height="50" as="geometry" />
        </mxCell>
        <mxCell id="Q8lysUZiwYk1WU2H4I8g-91" style="edgeStyle=none;shape=connector;rounded=0;orthogonalLoop=1;jettySize=auto;html=1;exitX=1;exitY=0;exitDx=0;exitDy=0;entryX=0;entryY=1;entryDx=0;entryDy=0;strokeColor=default;align=center;verticalAlign=middle;fontFamily=Helvetica;fontSize=11;fontColor=default;labelBackgroundColor=default;endArrow=none;" edge="1" parent="1" source="Q8lysUZiwYk1WU2H4I8g-57" target="Q8lysUZiwYk1WU2H4I8g-2">
          <mxGeometry relative="1" as="geometry" />
        </mxCell>
        <mxCell id="Q8lysUZiwYk1WU2H4I8g-57" value="&lt;span style=&quot;font-size: 8px;&quot;&gt;ID NICK&lt;/span&gt;" style="ellipse;whiteSpace=wrap;html=1;aspect=fixed;fontFamily=Helvetica;fontSize=11;fontColor=default;labelBackgroundColor=default;" vertex="1" parent="1">
          <mxGeometry x="320" y="410" width="50" height="50" as="geometry" />
        </mxCell>
        <mxCell id="Q8lysUZiwYk1WU2H4I8g-78" style="edgeStyle=none;shape=connector;rounded=0;orthogonalLoop=1;jettySize=auto;html=1;exitX=1;exitY=0;exitDx=0;exitDy=0;entryX=0;entryY=1;entryDx=0;entryDy=0;strokeColor=default;align=center;verticalAlign=middle;fontFamily=Helvetica;fontSize=11;fontColor=default;labelBackgroundColor=default;endArrow=none;" edge="1" parent="1" source="Q8lysUZiwYk1WU2H4I8g-58" target="Q8lysUZiwYk1WU2H4I8g-1">
          <mxGeometry relative="1" as="geometry" />
        </mxCell>
        <mxCell id="Q8lysUZiwYk1WU2H4I8g-58" value="&lt;span style=&quot;font-size: 8px;&quot;&gt;RULES&lt;/span&gt;" style="ellipse;whiteSpace=wrap;html=1;aspect=fixed;fontFamily=Helvetica;fontSize=11;fontColor=default;labelBackgroundColor=default;" vertex="1" parent="1">
          <mxGeometry x="540" y="620" width="50" height="50" as="geometry" />
        </mxCell>
        <mxCell id="Q8lysUZiwYk1WU2H4I8g-59" value="&lt;span style=&quot;font-size: 8px;&quot;&gt;PASSWORD&lt;/span&gt;" style="ellipse;whiteSpace=wrap;html=1;aspect=fixed;fontFamily=Helvetica;fontSize=11;fontColor=default;labelBackgroundColor=default;" vertex="1" parent="1">
          <mxGeometry x="720" y="400" width="50" height="50" as="geometry" />
        </mxCell>
        <mxCell id="Q8lysUZiwYk1WU2H4I8g-60" value="&lt;span style=&quot;font-size: 8px;&quot;&gt;CODE&lt;/span&gt;" style="ellipse;whiteSpace=wrap;html=1;aspect=fixed;fontFamily=Helvetica;fontSize=11;fontColor=default;labelBackgroundColor=default;" vertex="1" parent="1">
          <mxGeometry x="690" y="260" width="50" height="50" as="geometry" />
        </mxCell>
        <mxCell id="Q8lysUZiwYk1WU2H4I8g-61" value="&lt;span style=&quot;font-size: 8px;&quot;&gt;NAME&lt;/span&gt;" style="ellipse;whiteSpace=wrap;html=1;aspect=fixed;fontFamily=Helvetica;fontSize=11;fontColor=default;labelBackgroundColor=default;" vertex="1" parent="1">
          <mxGeometry x="540" y="260" width="50" height="50" as="geometry" />
        </mxCell>
        <mxCell id="Q8lysUZiwYk1WU2H4I8g-62" value="&lt;span style=&quot;font-size: 8px;&quot;&gt;STATE&lt;/span&gt;" style="ellipse;whiteSpace=wrap;html=1;aspect=fixed;fontFamily=Helvetica;fontSize=11;fontColor=default;labelBackgroundColor=default;" vertex="1" parent="1">
          <mxGeometry x="540" y="410" width="50" height="50" as="geometry" />
        </mxCell>
        <mxCell id="Q8lysUZiwYk1WU2H4I8g-63" value="&lt;span style=&quot;font-size: 8px;&quot;&gt;TIME OF&lt;/span&gt;&lt;div&gt;&lt;span style=&quot;font-size: 8px;&quot;&gt;CREATION&lt;/span&gt;&lt;/div&gt;" style="ellipse;whiteSpace=wrap;html=1;aspect=fixed;fontFamily=Helvetica;fontSize=11;fontColor=default;labelBackgroundColor=default;" vertex="1" parent="1">
          <mxGeometry x="680" y="440" width="50" height="50" as="geometry" />
        </mxCell>
        <mxCell id="Q8lysUZiwYk1WU2H4I8g-93" style="edgeStyle=none;shape=connector;rounded=0;orthogonalLoop=1;jettySize=auto;html=1;exitX=0;exitY=1;exitDx=0;exitDy=0;entryX=1;entryY=0;entryDx=0;entryDy=0;strokeColor=default;align=center;verticalAlign=middle;fontFamily=Helvetica;fontSize=11;fontColor=default;labelBackgroundColor=default;endArrow=none;" edge="1" parent="1" source="Q8lysUZiwYk1WU2H4I8g-72" target="Q8lysUZiwYk1WU2H4I8g-33">
          <mxGeometry relative="1" as="geometry" />
        </mxCell>
        <mxCell id="Q8lysUZiwYk1WU2H4I8g-72" value="PLAYERS" style="ellipse;whiteSpace=wrap;html=1;aspect=fixed;fontFamily=Helvetica;fontSize=11;fontColor=default;labelBackgroundColor=default;" vertex="1" parent="1">
          <mxGeometry x="690" y="170" width="50" height="50" as="geometry" />
        </mxCell>
        <mxCell id="Q8lysUZiwYk1WU2H4I8g-81" style="edgeStyle=none;shape=connector;rounded=0;orthogonalLoop=1;jettySize=auto;html=1;exitX=0;exitY=0.5;exitDx=0;exitDy=0;strokeColor=default;align=center;verticalAlign=middle;fontFamily=Helvetica;fontSize=11;fontColor=default;labelBackgroundColor=default;endArrow=none;entryX=0.5;entryY=1;entryDx=0;entryDy=0;" edge="1" parent="1" source="Q8lysUZiwYk1WU2H4I8g-45" target="Q8lysUZiwYk1WU2H4I8g-2">
          <mxGeometry relative="1" as="geometry">
            <Array as="points">
              <mxPoint x="420" y="765" />
            </Array>
          </mxGeometry>
        </mxCell>
        <mxCell id="Q8lysUZiwYk1WU2H4I8g-88" style="edgeStyle=none;shape=connector;rounded=0;orthogonalLoop=1;jettySize=auto;html=1;exitX=0;exitY=0.5;exitDx=0;exitDy=0;entryX=1;entryY=0.5;entryDx=0;entryDy=0;strokeColor=default;align=center;verticalAlign=middle;fontFamily=Helvetica;fontSize=11;fontColor=default;labelBackgroundColor=default;endArrow=none;" edge="1" parent="1" source="Q8lysUZiwYk1WU2H4I8g-82" target="Q8lysUZiwYk1WU2H4I8g-5">
          <mxGeometry relative="1" as="geometry" />
        </mxCell>
        <mxCell id="Q8lysUZiwYk1WU2H4I8g-82" value="&lt;span style=&quot;font-size: 8px;&quot;&gt;USER&lt;/span&gt;" style="ellipse;whiteSpace=wrap;html=1;aspect=fixed;fontFamily=Helvetica;fontSize=11;fontColor=default;labelBackgroundColor=default;" vertex="1" parent="1">
          <mxGeometry x="920" y="335" width="50" height="50" as="geometry" />
        </mxCell>
        <mxCell id="Q8lysUZiwYk1WU2H4I8g-87" style="edgeStyle=none;shape=connector;rounded=0;orthogonalLoop=1;jettySize=auto;html=1;exitX=0.5;exitY=1;exitDx=0;exitDy=0;entryX=0.5;entryY=0;entryDx=0;entryDy=0;strokeColor=default;align=center;verticalAlign=middle;fontFamily=Helvetica;fontSize=11;fontColor=default;labelBackgroundColor=default;endArrow=none;" edge="1" parent="1" source="Q8lysUZiwYk1WU2H4I8g-84" target="Q8lysUZiwYk1WU2H4I8g-5">
          <mxGeometry relative="1" as="geometry" />
        </mxCell>
        <mxCell id="Q8lysUZiwYk1WU2H4I8g-84" value="&lt;span style=&quot;font-size: 8px;&quot;&gt;POINTS&lt;/span&gt;" style="ellipse;whiteSpace=wrap;html=1;aspect=fixed;fontFamily=Helvetica;fontSize=11;fontColor=default;labelBackgroundColor=default;" vertex="1" parent="1">
          <mxGeometry x="825" y="250" width="50" height="50" as="geometry" />
        </mxCell>
      </root>
    </mxGraphModel>
  </diagram>
</mxfile>
